<svg xmlns="http://www.w3.org/2000/svg" width="75" height="74.997" viewBox="0 0 75 74.997">
  <g id="ic_avatar_default" transform="translate(0 -0.001)">
    <path id="Path_15151" data-name="Path 15151" d="M37.5,0A37.5,37.5,0,1,0,75,37.5,37.5,37.5,0,0,0,37.5,0Zm0,11.212a12.4,12.4,0,1,1-12.4,12.4A12.4,12.4,0,0,1,37.5,11.213Zm-.008,53.98A27.521,27.521,0,0,1,19.57,58.585a5.286,5.286,0,0,1-1.855-4.018,12.509,12.509,0,0,1,12.57-12.505H44.718a12.491,12.491,0,0,1,12.55,12.505,5.272,5.272,0,0,1-1.853,4.016A27.512,27.512,0,0,1,37.492,65.194Z" transform="translate(0 0)" fill="#979b9f"/>
  </g>
</svg>
